#!OML:ASF H:\Male1\Project 1\Capture day 1\Session 1\Male1.ASF
:FULLY-SPECIFIED
:DEGREES
203
root -6.08568 14.6036 4.88559 179.485 -64.4397 -166.775
lowerback 30.1973 0.849299 -2.43644
upperback 16.0282 -2.12775 -1.21466
thorax 1.60908 -2.16848 0.605756
lowerneck -1.51752 10.9424 14.3481
upperneck -2.13729 14.5347 -14.8307
head 1.78761 7.23139 -6.21831
rclavicle 6.99722e-014 -7.95139e-016
rhumerus -24.3923 9.25467 -89.0971
rradius 57.7116
rwrist -37.721
rhand -33.5165 14.6279
rfingers 7.12502
rthumb -6.71285 -15.2456
lclavicle 6.99722e-014 -7.95139e-016
lhumerus 9.81489 -7.01498 59.7269
lradius 46.0148
lwrist 39.0965
lhand -32.3879 30.766
lfingers 7.12502
lthumb -5.62325 60.6714
rfemur -39.9437 8.46844 29.5332
rtibia 42.6017
rfoot -14.8447 -4.26246
rtoes -28.15
lfemur -44.7075 -10.1975 -9.41249
ltibia 63.2316
lfoot -19.9045 17.4744
ltoes -9.2538
204
root -6.14689 14.6373 4.92126 179.764 -63.2576 -167.843
lowerback 29.3707 0.889135 -2.44296
upperback 15.7166 -1.98072 -1.21518
thorax 1.60206 -2.0696 0.558254
lowerneck -1.81456 10.831 14.4213
upperneck -0.993976 14.425 -14.6698
head 2.14649 7.15796 -6.14043
rclavicle 7.63333e-014 4.69132e-014
rhumerus -25.0064 9.32442 -89.1986
rradius 57.7285
rwrist -38.0189
rhand -33.1989 13.9311
rfingers 7.12502
rthumb -6.40626 -15.952
lclavicle 7.63333e-014 4.69132e-014
lhumerus 7.8015 -7.57949 60.648
lradius 46.1504
lwrist 38.4272
lhand -32.4628 30.4154
lfingers 7.12502
lthumb -5.69552 60.3189
rfemur -38.4872 8.92518 29.1432
rtibia 41.7686
rfoot -14.663 -3.81557
rtoes -28.5459
lfemur -43.4894 -11.7358 -8.87626
ltibia 62.5421
lfoot -20.1213 15.3445
ltoes -11.3893
205
root -6.21088 14.6704 4.95974 180.053 -62.1087 -168.846
lowerback 28.5222 0.899097 -2.37731
upperback 15.3923 -1.84818 -1.23909
thorax 1.59465 -1.9688 0.449737
lowerneck -2.10304 10.6834 14.512
upperneck 0.109329 14.2621 -14.5247
head 2.48849 7.05851 -6.07958
rclavicle 6.04305e-014 8.66701e-014
rhumerus -25.6851 9.43613 -89.3494
rradius 57.7203
rwrist -38.1637
rhand -32.7808 13.4035
rfingers 7.12502
rthumb -6.00258 -16.4914
lclavicle 6.04305e-014 8.66701e-014
lhumerus 5.8622 -8.19691 61.5136
lradius 46.3092
lwrist 37.7891
lhand -32.8254 30.0175
lfingers 7.12502
lthumb -6.04569 59.9112
rfemur -37.1538 9.59177 28.6673
rtibia 40.9854
rfoot -14.4958 -3.58712
rtoes -28.8239
lfemur -42.3005 -13.4031 -8.35525
ltibia 61.5083
lfoot -20.6908 13.0379
ltoes -13.5696
206
root -6.27901 14.7048 4.99949 180.328 -60.979 -169.802
lowerback 27.6607 0.888458 -2.26418
upperback 15.0743 -1.73174 -1.28756
thorax 1.60665 -1.87148 0.29281
lowerneck -2.37317 10.504 14.5944
upperneck 1.16552 14.0526 -14.3845
head 2.808 6.93706 -6.02877
rclavicle 5.08889e-014 6.59965e-014
rhumerus -26.3892 9.58392 -89.5479
rradius 57.6335
rwrist -38.1458
rhand -32.2424 12.8646
rfingers 7.12502
rthumb -5.48281 -17.0445
lclavicle 5.08889e-014 6.59965e-014
lhumerus 4.00841 -8.87214 62.294
lradius 46.4664
lwrist 37.188
lhand -33.4412 29.6164
lfingers 7.12502
lthumb -6.64017 59.4922
rfemur -35.8891 10.4434 28.127
rtibia 40.2424
rfoot -14.3635 -3.54429
rtoes -28.9339
lfemur -41.0503 -15.1938 -7.89016
ltibia 60.1065
lfoot -21.4107 10.7375
ltoes -16.1319
207
root -6.35286 14.7417 5.03985 180.569 -59.8687 -170.692
lowerback 26.7526 0.847224 -2.10331
upperback 14.7744 -1.64496 -1.35335
thorax 1.66761 -1.78587 0.0972207
lowerneck -2.63046 10.2992 14.6063
upperneck 2.16998 13.8035 -14.1911
head 3.09664 6.79746 -5.95988
rclavicle -7.31528e-014 -3.57812e-014
rhumerus -27.0684 9.77365 -89.7809
rradius 57.4097
rwrist -37.9983
rhand -31.5501 12.1957
rfingers 7.12502
rthumb -4.81433 -17.7296
lclavicle -7.31528e-014 -3.57812e-014
lhumerus 2.24572 -9.51399 63.0224
lradius 46.5759
lwrist 36.5236
lhand -33.8422 29.367
lfingers 7.12502
lthumb -7.02729 59.2304
rfemur -34.6797 11.4076 27.5557
rtibia 39.5527
rfoot -14.2914 -3.60929
rtoes -28.8744
lfemur -39.7032 -17.1023 -7.50355
ltibia 58.3527
lfoot -22.1443 8.58878
ltoes -19.0752
208
root -6.43111 14.7789 5.08005 180.77 -58.7554 -171.51
lowerback 25.8057 0.788948 -1.92957
upperback 14.4877 -1.57967 -1.42239
thorax 1.76974 -1.71078 -0.103831
lowerneck -2.88534 10.0679 14.5006
upperneck 3.12638 13.5103 -13.889
head 3.34962 6.63779 -5.84767
rclavicle 5.40694e-014 -9.22361e-014
rhumerus -27.7006 9.9975 -90.0325
rradius 57.0213
rwrist -37.761
rhand -30.7085 11.3438
rfingers 7.12502
rthumb -4.00166 -18.5984
lclavicle 5.40694e-014 -9.22361e-014
lhumerus 0.547879 -10.0083 63.799
lradius 46.605
lwrist 35.747
lhand -33.9439 29.2543
lfingers 7.12502
lthumb -7.12543 59.1143
rfemur -33.534 12.4476 26.983
rtibia 38.9336
rfoot -14.2781 -3.72431
rtoes -28.6936
lfemur -38.2459 -19.077 -7.21564
ltibia 56.2958
lfoot -22.7916 6.66545
ltoes -22.2311
209
root -6.5114 14.8138 5.11961 181.044 -57.6089 -172.367
lowerback 24.825 0.739469 -1.83868
upperback 14.1957 -1.52084 -1.49954
thorax 1.89152 -1.64316 -0.264344
lowerneck -3.13379 9.80354 14.2652
upperneck 4.04231 13.1633 -13.4502
head 3.56575 6.45414 -5.68171
rclavicle 5.88403e-014 1.16885e-013
rhumerus -28.3 10.2378 -90.2904
rradius 56.4838
rwrist -37.4725
rhand -29.7282 10.3061
rfingers 7.12502
rthumb -3.05495 -19.6518
lclavicle 5.88403e-014 1.16885e-013
lhumerus -1.1038 -10.3322 64.6279
lradius 46.5506
lwrist 34.939
lhand -33.5861 29.2859
lfingers 7.12502
lthumb -6.78007 59.1573
rfemur -32.5089 13.5179 26.3657
rtibia 38.4113
rfoot -14.3041 -3.81502
rtoes -28.457
lfemur -36.6941 -21.045 -7.10862
ltibia 54.0048
lfoot -23.2775 5.02766
ltoes -25.4266
210
root -6.59059 14.8424 5.1586 181.328 -56.3916 -173.19
lowerback 23.8451 0.712932 -1.8458
upperback 13.8778 -1.45019 -1.56677
thorax 1.9937 -1.57451 -0.358828
lowerneck -3.35407 9.50478 13.9073
upperneck 4.91173 12.7616 -12.8721
head 3.74186 6.24746 -5.46238
rclavicle -3.73715e-014 8.11041e-014
rhumerus -28.8887 10.4966 -90.5441
rradius 55.8223
rwrist -37.1528
rhand -28.6312 9.11883
rfingers 7.12502
rthumb -1.99554 -20.8516
lclavicle -3.73715e-014 8.11041e-014
lhumerus -2.7463 -10.478 65.5036
lradius 46.4305
lwrist 34.1724
lhand -32.826 29.3741
lfingers 7.12502
lthumb -6.04624 59.2678
rfemur -31.615 14.5955 25.76
rtibia 37.9981
rfoot -14.3681 -3.82369
rtoes -28.2202
lfemur -35.0645 -22.9113 -7.14067
ltibia 51.5789
lfoot -23.6003 3.57007
ltoes -28.172
211
root -6.66685 14.8625 5.1975 181.559 -55.0667 -173.908
lowerback 22.8855 0.705768 -1.96143
upperback 13.5271 -1.37277 -1.62041
thorax 2.05964 -1.50809 -0.375761
lowerneck -3.5462 9.18897 13.5142
upperneck 5.75298 12.3291 -12.2188
head 3.89888 6.02961 -5.21936
rclavicle -7.4743e-014 -2.22639e-014
rhumerus -29.4635 10.8262 -90.8181
rradius 55.0537
rwrist -36.7914
rhand -27.4629 7.88903
rfingers 7.12502
rthumb -0.867212 -22.089
lclavicle -7.4743e-014 -2.22639e-014
lhumerus -4.43113 -10.4306 66.3766
lradius 46.2875
lwrist 33.4681
lhand -31.9525 29.4175
lfingers 7.12502
lthumb -5.20289 59.3336
rfemur -30.8582 15.6392 25.2244
rtibia 37.6905
rfoot -14.4457 -3.69706
rtoes -28.1594
lfemur -33.3431 -24.5553 -7.29504
ltibia 49.127
lfoot -23.7826 2.31677
ltoes -30.0088
